<?xml version="1.0" encoding="UTF-8" standalone="no"?>
<!-- Created with Inkscape (http://www.inkscape.org/) -->

<svg
  xmlns:cc="http://creativecommons.org/ns#"
  xmlns:dc="http://purl.org/dc/elements/1.1/"
  xmlns:inkscape="http://www.inkscape.org/namespaces/inkscape"
  xmlns:rdf="http://www.w3.org/1999/02/22-rdf-syntax-ns#"
  xmlns:sodipodi="http://sodipodi.sourceforge.net/DTD/sodipodi-0.dtd"
  height="16.933001pc"
  id="svg2294"
  version="1.1"
  viewBox="0 0 71.683035 71.683038"
  width="16.933001pc"
  xmlns="http://www.w3.org/2000/svg"
  inkscape:version="0.92.4 (5da689c313, 2019-01-14)"
  sodipodi:docname="background8_dark.svg">
  <title
    id="title2410">background8_dark
  </title>
  <defs
    id="defs2288">
    <filter
      style="color-interpolation-filters:sRGB;"
      id="filter4448"
      inkscape:label="Fade to Black or White">
      <feColorMatrix
        id="feColorMatrix4446"
        values="0.6 0 0 0 0 0 0.6 0 0 0 0 0 0.6 0 0 0 0 0 1 0"/>
    </filter>
    <filter
      style="color-interpolation-filters:sRGB;"
      id="filter4452"
      inkscape:label="Fade to Black or White">
      <feColorMatrix
        id="feColorMatrix4450"
        values="0.6 0 0 0 0 0 0.6 0 0 0 0 0 0.6 0 0 0 0 0 1 0"/>
    </filter>
    <filter
      style="color-interpolation-filters:sRGB;"
      id="filter4456"
      inkscape:label="Fade to Black or White">
      <feColorMatrix
        id="feColorMatrix4454"
        values="0.6 0 0 0 0 0 0.6 0 0 0 0 0 0.6 0 0 0 0 0 1 0"/>
    </filter>
    <filter
      style="color-interpolation-filters:sRGB;"
      id="filter4460"
      inkscape:label="Fade to Black or White">
      <feColorMatrix
        id="feColorMatrix4458"
        values="0.6 0 0 0 0 0 0.6 0 0 0 0 0 0.6 0 0 0 0 0 1 0"/>
    </filter>
    <filter
      style="color-interpolation-filters:sRGB;"
      id="filter4464"
      inkscape:label="Fade to Black or White">
      <feColorMatrix
        id="feColorMatrix4462"
        values="0.6 0 0 0 0 0 0.6 0 0 0 0 0 0.6 0 0 0 0 0 1 0"/>
    </filter>
    <filter
      style="color-interpolation-filters:sRGB;"
      id="filter4468"
      inkscape:label="Fade to Black or White">
      <feColorMatrix
        id="feColorMatrix4466"
        values="0.6 0 0 0 0 0 0.6 0 0 0 0 0 0.6 0 0 0 0 0 1 0"/>
    </filter>
    <filter
      style="color-interpolation-filters:sRGB;"
      id="filter4472"
      inkscape:label="Fade to Black or White">
      <feColorMatrix
        id="feColorMatrix4470"
        values="0.6 0 0 0 0 0 0.6 0 0 0 0 0 0.6 0 0 0 0 0 1 0"/>
    </filter>
    <filter
      style="color-interpolation-filters:sRGB;"
      id="filter4476"
      inkscape:label="Fade to Black or White">
      <feColorMatrix
        id="feColorMatrix4474"
        values="0.6 0 0 0 0 0 0.6 0 0 0 0 0 0.6 0 0 0 0 0 1 0"/>
    </filter>
    <filter
      style="color-interpolation-filters:sRGB;"
      id="filter4480"
      inkscape:label="Fade to Black or White">
      <feColorMatrix
        id="feColorMatrix4478"
        values="0.6 0 0 0 0 0 0.6 0 0 0 0 0 0.6 0 0 0 0 0 1 0"/>
    </filter>
    <filter
      style="color-interpolation-filters:sRGB;"
      id="filter4484"
      inkscape:label="Fade to Black or White">
      <feColorMatrix
        id="feColorMatrix4482"
        values="0.6 0 0 0 0 0 0.6 0 0 0 0 0 0.6 0 0 0 0 0 1 0"/>
    </filter>
  </defs>
  <sodipodi:namedview
    bordercolor="#666666"
    borderopacity="1.0"
    id="base"
    pagecolor="#ffffff"
    showgrid="false"
    units="pc"
    inkscape:current-layer="layer1"
    inkscape:cx="153.12484"
    inkscape:cy="144.00371"
    inkscape:document-units="pc"
    inkscape:pageopacity="0.0"
    inkscape:pageshadow="2"
    inkscape:window-height="1057"
    inkscape:window-maximized="1"
    inkscape:window-width="1920"
    inkscape:window-x="-8"
    inkscape:window-y="-8"
    inkscape:zoom="1.979899"/>
  <metadata
    id="metadata2291">
    <rdf:RDF>
      <cc:Work
        rdf:about="">
        <dc:format>image/svg+xml</dc:format>
        <dc:type
          rdf:resource="http://purl.org/dc/dcmitype/StillImage"/>
        <dc:title>background8_dark</dc:title>
      </cc:Work>
    </rdf:RDF>
  </metadata>
  <g
    id="layer1"
    transform="translate(0,-225.31696)"
    inkscape:groupmode="layer"
    inkscape:label="Layer 1">
    <g
      style="filter:url(#filter4484)"
      id="g398"
      transform="matrix(0.26458334,0,0,0.26458334,-215.61338,162.83026)">
      <g
        id="use396"
        transform="matrix(0.26458334,0,0,0.26458334,0,225.31696)">
        <path
          style="fill:#d5edf7;stroke:none"
          d="M 4104,1065 V 41 H 3080 v 1024 z"
          id="path1066"
          inkscape:connector-curvature="0"/>
      </g>
    </g>
    <g
      style="filter:url(#filter4480)"
      id="g402"
      transform="matrix(0.26458334,0,0,0.26458334,-215.61338,162.83026)">
      <g
        id="use400"
        transform="matrix(0.26458334,0,0,0.26458334,0,225.31696)">
        <path
          style="fill:#e6f4fa;stroke:none"
          d="m 4068.9,428.95 q -2.15,-3.1 -4.95,-5.9 -11.65,-11.65 -28,-11.65 -7,0 -13.1,2.15 -8.2,2.8 -14.85,9.5 -9.3,9.25 -11.15,21.65 -10.65,1.3 -20.15,5.1 -2.35,-6.15 -7.7,-11.05 -9.5,-8.9 -23.1,-8.9 -13.55,0 -23.15,8.9 -1.4,1.35 -2.65,2.8 -23.75,-20.7 -56.8,-20.7 -6.7,0 -13.05,0.9 -0.5,-0.5 -1,-0.95 -9.5,-8.95 -23.1,-8.95 -7.7,0 -14.2,3 h -0.05 q 0,-0.25 0.05,-0.5 0.1,-1.05 0.1,-2.05 0,-0.45 0,-0.75 0,-0.5 0,-1.05 -0.4,-11.95 -9.6,-20.5 -9.55,-8.9 -23.1,-8.9 -3,0 -5.7,0.45 -2.25,-7.1 -8.3,-12.7 -9.55,-8.9 -23.1,-8.9 -13.55,0 -23.1,8.9 -6.55,6.1 -8.65,13.95 -21.2,4.05 -37.85,18.1 -8.5,-6.2 -19.85,-6.2 -13.55,0 -23.15,8.9 -6.95,6.5 -8.85,15.05 -8.45,-1.65 -17.6,-1.65 -2.9,0 -5.8,0.2 -2.1,-7.7 -8.55,-13.75 -9.5,-8.9 -23.1,-8.9 -13.55,0 -23.15,8.9 -0.35,0.4 -0.6,0.7 -5.3,-8.3 -13.1,-15.6 -24.45,-22.75 -59,-22.8 -2.35,-5.35 -7.05,-9.7 -9.55,-8.9 -23.15,-8.9 -4.6,0 -8.6,1 -0.9,-11 -9.55,-19 -9.55,-8.9 -23.1,-8.9 -9.7,0 -17.2,4.5 -16.7,-7.7 -36.8,-7.7 -34.7,0 -59.15,22.8 -11.35,10.55 -17.4,23.1 -3.4,-0.65 -7.15,-0.65 -13.45,0 -23.1,8.85 -9,8.4 -9.45,20.25 -0.05,0.6 -0.05,1.3 0,1.3 0.1,2.6 0.45,5.4 2.8,10.2 -1.65,3.45 -2.4,7.3 -12.55,5.55 -23.2,15.5 -4.5,4.2 -8.2,8.8 -7.65,-4.55 -17.4,-4.55 -13.55,0 -23.05,8.9 -7.15,6.6 -8.95,15.25 -0.8,0 -1.6,0 -19.5,0 -35.75,7.3 -6.9,-3.45 -15.2,-3.45 -8.45,0 -15.3,3.5 V 755.9 H 4104 V 467.3 q -0.4,-15.75 -11.6,-26.95 -10,-10 -23.5,-11.4 z"
          id="path1074"
          inkscape:connector-curvature="0"/>
      </g>
    </g>
    <g
      style="filter:url(#filter4476)"
      id="g406"
      transform="matrix(0.26458334,0,0,0.26458334,-215.61338,162.83026)">
      <g
        id="use404"
        transform="matrix(0.26458334,0,0,0.26458334,0,225.31696)">
        <path
          style="fill:#d5edf7;stroke:none"
          d="m 3561.55,643.6 -15.8,1.65 -11.4,109.2 84.3,-8.85 -0.05,0.3 h 170.25 L 3766.3,678.3 H 3747 l -17.05,-207.9 h -28.45 l -13.6,62.45 h -13.05 l -15.35,85.8 h -17 l -7.15,38.25 -25.85,-78.85 -36.7,3.85 -11.25,61.7 m -212.7,-128.6 -35.05,-3.8 -51.9,143.5 -16.65,-1.8 -32.2,61.05 197.7,21.55 -38.4,-121.35 -11.3,-1.2 -12.2,-97.95 m 600.7,167.6 -15.8,1.65 -11.4,109.2 171.75,-18.05 -41.8,-33.9 -13.55,1.45 -41.25,-125.9 -36.7,3.85 z"
          id="path1070"
          inkscape:connector-curvature="0"/>
      </g>
    </g>
    <g
      style="filter:url(#filter4472)"
      id="g410"
      transform="matrix(0.26458334,0,0,0.26458334,-215.61338,162.83026)">
      <g
        id="use408"
        transform="matrix(0.26458334,0,0,0.26458334,0,225.31696)">
        <path
          style="fill:#b6d9e7;stroke:none"
          d="m 4035.45,703.5 q -58.95,27 -120.55,4.25 -57.1,-21.15 -115.4,-38.6 -59.85,-17.85 -121.25,-5.75 -61.3,12.1 -117.15,38.65 -56.45,26.65 -119.5,27.1 -62.95,0.55 -121.85,-20.85 -57.1,-20.9 -116.45,-34.9 -62.05,-14.5 -123.25,2.3 V 1065 H 4104 V 675.7 q -34.9,12.4 -68.55,27.8 z"
          id="path1054"
          inkscape:connector-curvature="0"/>
      </g>
    </g>
    <g
      style="filter:url(#filter4468)"
      id="g414"
      transform="matrix(0.26458334,0,0,0.26458334,-215.61338,162.83026)">
      <g
        id="use412"
        transform="matrix(0.26458334,0,0,0.26458334,0,225.31696)">
        <path
          style="fill:#b6d9e7;stroke:none"
          d="m 3288,686.4 17.05,0.95 -2.35,21.95 h 14.65 l -2.15,-21.35 19.8,1.05 -25.85,-84.5 z"
          id="path1058"
          inkscape:connector-curvature="0"/>
      </g>
    </g>
    <g
      style="filter:url(#filter4464)"
      id="g418"
      transform="matrix(0.26458334,0,0,0.26458334,-215.61338,162.83026)">
      <g
        id="use416"
        transform="matrix(0.26458334,0,0,0.26458334,0,225.31696)">
        <path
          style="fill:#b6d9e7;stroke:none"
          d="m 3149.25,671.3 -1.4,-14.05 13,0.7 -16.95,-55.45 -13.9,53.75 11.2,0.65 -1.55,14.4 z"
          id="path1042"
          inkscape:connector-curvature="0"/>
      </g>
    </g>
    <g
      style="filter:url(#filter4460)"
      id="g422"
      transform="matrix(0.26458334,0,0,0.26458334,-215.61338,162.83026)">
      <g
        id="use420"
        transform="matrix(0.26458334,0,0,0.26458334,0,225.31696)">
        <path
          style="fill:#b6d9e7;stroke:none"
          d="m 3367.9,715.25 13,0.7 -16.95,-55.45 -13.9,53.75 11.2,0.65 -1.55,14.4 h 9.6 z"
          id="path1046"
          inkscape:connector-curvature="0"/>
      </g>
    </g>
    <g
      style="filter:url(#filter4456)"
      id="g426"
      transform="matrix(0.26458334,0,0,0.26458334,-215.61338,162.83026)">
      <g
        id="use424"
        transform="matrix(0.26458334,0,0,0.26458334,0,225.31696)">
        <path
          style="fill:#b6d9e7;stroke:none"
          d="m 3949.85,721.3 h 9.6 l -1.4,-14.05 13,0.7 -16.95,-55.45 -13.9,53.75 11.2,0.65 z"
          id="path1050"
          inkscape:connector-curvature="0"/>
      </g>
    </g>
    <g
      style="filter:url(#filter4452)"
      id="g430"
      transform="matrix(0.26458334,0,0,0.26458334,-215.61338,162.83026)">
      <g
        id="use428"
        transform="matrix(0.26458334,0,0,0.26458334,0,225.31696)">
        <path
          style="fill:#b6d9e7;stroke:none"
          d="m 4020.2,686.4 17.05,0.95 -2.35,21.95 h 14.65 l -2.15,-21.35 19.8,1.05 -25.85,-84.5 z"
          id="path1062"
          inkscape:connector-curvature="0"/>
      </g>
    </g>
    <g
      style="filter:url(#filter4448)"
      id="g514"
      transform="matrix(0.26458334,0,0,0.26458334,-215.61338,162.83026)">
      <g
        id="use512"
        transform="matrix(0.26458334,0,0,0.26458334,0,225.31696)">
        <path
          style="fill:#b6d9e7;stroke:none"
          d="m 3953.95,590.8 q -3.4,-4.2 -7.2,-7.7 l -10.2,-75.6 -44.8,55.6 q -3,0 -6.25,0.3 -3.55,0.3 -7.2,0.8 l 7.15,28.8 -1.1,6.1 -26.6,-3.35 -4.35,17 -8.05,-0.8 -1.85,-18 -28.45,-3.6 -9,17.6 -8.15,-0.85 -3.25,-19.35 -21,-2.65 0.5,-6.15 14.1,-26.1 q -1.3,-0.55 -2.65,-1.05 -5.15,-2.05 -10.1,-3.4 l -29.65,-65 -28.65,70.7 q -4.5,2.5 -8.85,5.7 l 14.5,24.55 -1.6,92.75 -5.8,25.2 199.65,25.25 -2.8,-26.35 21.5,-90.25 z"
          id="path1078"
          inkscape:connector-curvature="0"/>
      </g>
    </g>
  </g>
</svg>
