<?xml version="1.0" encoding="UTF-8" standalone="no"?>
<svg
  xmlns:cc="http://creativecommons.org/ns#"
  xmlns:dc="http://purl.org/dc/elements/1.1/"
  xmlns:inkscape="http://www.inkscape.org/namespaces/inkscape"
  xmlns:rdf="http://www.w3.org/1999/02/22-rdf-syntax-ns#"
  xmlns:sodipodi="http://sodipodi.sourceforge.net/DTD/sodipodi-0.dtd"
  height="1080"
  id="svg2294"
  version="1.1"
  viewBox="0 0 1920 1080"
  width="1920"
  xmlns="http://www.w3.org/2000/svg"
  inkscape:version="0.92.4 (5da689c313, 2019-01-14)"
  sodipodi:docname="background2.svg">
  <sodipodi:namedview
    bordercolor="#666666"
    borderopacity="1"
    gridtolerance="10"
    guidetolerance="10"
    id="namedview393"
    objecttolerance="10"
    pagecolor="#ffffff"
    showgrid="false"
    units="px"
    inkscape:current-layer="svg2294"
    inkscape:cx="785.24846"
    inkscape:cy="374.33082"
    inkscape:pageopacity="0"
    inkscape:pageshadow="2"
    inkscape:window-height="1057"
    inkscape:window-maximized="1"
    inkscape:window-width="1920"
    inkscape:window-x="1912"
    inkscape:window-y="-8"
    inkscape:zoom="0.43554005"/>
  <title
    id="title2410">background2_dark
  </title>
  <defs
    id="defs2288">
    <filter
      style="color-interpolation-filters:sRGB"
      id="filter4100"
      inkscape:label="Fade to Black or White">
      <feColorMatrix
        id="feColorMatrix4098"
        values="0.6 0 0 0 0 0 0.6 0 0 0 0 0 0.6 0 0 0 0 0 1 0"/>
    </filter>
  </defs>
  <metadata
    id="metadata2291">
    <rdf:RDF>
      <cc:Work
        rdf:about="">
        <dc:format>image/svg+xml</dc:format>
        <dc:type
          rdf:resource="http://purl.org/dc/dcmitype/StillImage"/>
        <dc:title>background2_dark
        </dc:title>
      </cc:Work>
    </rdf:RDF>
  </metadata>
  <g
    style="filter:url(#filter4100)"
    id="layer1"
    transform="matrix(26.789292,0,0,15.04253,-0.9707287,-3387.7808)">
    <g
      id="g958"
      transform="matrix(0.26458333,0,0,0.26458333,-141.12875,222.44537)">
      <g
        id="use956"
        transform="scale(0.26458333)">
        <path
          style="fill:#d5edf7;stroke:none"
          d="M 3040,1065 V 41 H 2016 v 1024 z"
          id="path2378"
          inkscape:connector-curvature="0"/>
      </g>
    </g>
    <g
      id="g962"
      transform="matrix(0.26458333,0,0,0.26458333,-141.12875,222.44537)">
      <g
        id="use960"
        transform="scale(0.26458333)">
        <path
          style="fill:#e6f4fa;stroke:none"
          d="m 2786.25,501.75 q -0.5,-0.5 -1,-0.95 -9.5,-8.95 -23.1,-8.95 -7.7,0 -14.2,3 h -0.05 q 0,-0.25 0.05,-0.5 0.1,-1.05 0.1,-2.05 0,-0.45 0,-0.75 0,-0.5 0,-1.05 -0.4,-11.95 -9.6,-20.5 -9.55,-8.9 -23.1,-8.9 -3,0 -5.7,0.45 -2.25,-7.1 -8.3,-12.7 -9.55,-8.9 -23.1,-8.9 -13.55,0 -23.1,8.9 -6.55,6.1 -8.65,13.95 -21.2,4.05 -37.85,18.1 -8.5,-6.2 -19.85,-6.2 -13.55,0 -23.15,8.9 -6.95,6.5 -8.85,15.05 -8.45,-1.65 -17.6,-1.65 -2.9,0 -5.8,0.2 -2.1,-7.7 -8.55,-13.75 -9.5,-8.9 -23.1,-8.9 -13.55,0 -23.15,8.9 -0.35,0.4 -0.6,0.7 -5.3,-8.3 -13.1,-15.6 -24.45,-22.75 -59,-22.8 -2.35,-5.35 -7.05,-9.7 -9.55,-8.9 -23.15,-8.9 -4.6,0 -8.6,1 -0.9,-11 -9.55,-19 -9.55,-8.9 -23.1,-8.9 -9.7,0 -17.2,4.5 -16.7,-7.7 -36.8,-7.7 -34.7,0 -59.15,22.8 -11.35,10.55 -17.4,23.1 -3.4,-0.65 -7.15,-0.65 -13.45,0 -23.1,8.85 -9,8.4 -9.45,20.25 -0.05,0.6 -0.05,1.3 0,1.3 0.1,2.6 0.45,5.4 2.8,10.2 -1.65,3.45 -2.4,7.3 -12.55,5.55 -23.2,15.5 -4.5,4.2 -8.2,8.8 -7.65,-4.55 -17.4,-4.55 -13.55,0 -23.05,8.9 -7.15,6.6 -8.95,15.25 -0.8,0 -1.6,0 -19.5,0 -35.75,7.3 -6.9,-3.45 -15.2,-3.45 -8.45,0 -15.3,3.5 V 795.9 H 3040 V 547.3 q -0.4,-15.75 -11.6,-26.95 -10,-10 -23.5,-11.4 -2.15,-3.1 -4.95,-5.9 -11.65,-11.65 -28,-11.65 -7,0 -13.1,2.15 -8.2,2.8 -14.85,9.5 -9.3,9.25 -11.15,21.65 -10.65,1.3 -20.15,5.1 -2.35,-6.15 -7.7,-11.05 -9.5,-8.9 -23.1,-8.9 -13.55,0 -23.15,8.9 -1.4,1.35 -2.65,2.8 -23.75,-20.7 -56.8,-20.7 -6.7,0 -13.05,0.9 z"
          id="path2386"
          inkscape:connector-curvature="0"/>
      </g>
    </g>
    <g
      id="g966"
      transform="matrix(0.26458333,0,0,0.26458333,-141.12875,222.44537)">
      <g
        id="use964"
        transform="scale(0.26458333)">
        <path
          style="fill:#d5edf7;stroke:none"
          d="m 2800.25,672.3 q -58.9,21.4 -121.85,20.85 -63.05,-0.45 -119.5,-27.1 -55.85,-26.55 -117.15,-38.65 -61.4,-12.1 -121.25,5.75 -58.3,17.45 -115.4,38.6 -61.6,22.75 -120.55,-4.25 Q 2050.9,652.1 2016,639.7 V 1029 H 3039.95 V 639.7 q -61.2,-16.8 -123.25,-2.3 -59.35,14 -116.45,34.9 z"
          id="path2370"
          inkscape:connector-curvature="0"/>
      </g>
    </g>
    <g
      id="g970"
      transform="matrix(0.26458333,0,0,0.26458333,-141.12875,222.44537)">
      <g
        id="use968"
        transform="scale(0.26458333)">
        <path
          style="fill:#d5edf7;stroke:none"
          d="m 2278,575 q -2.3,2.3 -2.4,5.5 v 44.2 q 0.1,3.2 2.4,5.5 1.65,1.6 3.7,2.15 v 17.2 q 0,0.75 0.55,1.35 0.6,0.55 1.4,0.55 0.8,0 1.35,-0.55 0.6,-0.6 0.6,-1.35 v -17.2 q 2.15,-0.45 3.8,-2.15 2.3,-2.3 2.35,-5.5 v -44.2 q -0.05,-3.2 -2.35,-5.5 -2.35,-2.35 -5.7,-2.35 -3.35,0 -5.7,2.35 m -17.55,13.55 q -3.35,0 -5.7,2.35 -2.3,2.3 -2.4,5.55 v 44.15 q 0.1,3.2 2.4,5.5 1.65,1.6 3.7,2.15 v 17.2 q 0,0.75 0.55,1.35 0.6,0.55 1.4,0.55 0.8,0 1.35,-0.55 0.6,-0.6 0.6,-1.35 V 648.3 q 2.15,-0.5 3.8,-2.2 2.3,-2.3 2.35,-5.5 v -44.15 q -0.05,-3.25 -2.35,-5.55 -2.35,-2.35 -5.7,-2.35 z"
          id="path2382"
          inkscape:connector-curvature="0"/>
      </g>
    </g>
    <g
      id="g974"
      transform="matrix(0.26458333,0,0,0.26458333,-141.12875,222.44537)">
      <g
        id="use972"
        transform="scale(0.26458333)">
        <path
          style="fill:#b6d9e7;stroke:none"
          d="m 2735.5,669.15 q -59.85,-17.85 -121.25,-5.75 -61.3,12.1 -117.15,38.65 -56.45,26.65 -119.5,27.1 -62.95,0.55 -121.85,-20.85 -57.1,-20.9 -116.45,-34.9 -62.05,-14.5 -123.25,2.3 V 1065 H 3040 V 675.7 q -34.9,12.4 -68.55,27.8 -58.95,27 -120.55,4.25 -57.1,-21.15 -115.4,-38.6 z"
          id="path2366"
          inkscape:connector-curvature="0"/>
      </g>
    </g>
    <g
      id="g1014"
      transform="matrix(0.26458333,0,0,0.26458333,-141.12875,222.44537)">
      <g
        id="use1012"
        transform="scale(0.26458333)">
        <path
          style="fill:#b6d9e7;stroke:none"
          d="m 2701.75,437.4 q -0.25,-11.6 -8.5,-19.85 -8.55,-8.5 -20.6,-8.5 h -0.05 q -12.05,0 -20.55,8.5 -8.3,8.25 -8.55,19.85 v 159.2 q 0.2,11.65 8.55,19.95 6,6 13.75,7.8 v 61.8 q 0,2.85 2.1,4.95 2.05,2.05 4.95,2.05 2.9,0 4.95,-2.05 2.05,-2.1 2.05,-4.95 v -61.9 q 7.5,-1.85 13.4,-7.7 8.3,-8.3 8.5,-19.95 z"
          id="path2374"
          inkscape:connector-curvature="0"/>
      </g>
    </g>
    <g
      id="g1018"
      transform="matrix(0.26458333,0,0,0.26458333,-141.12875,222.44537)">
      <g
        id="use1016"
        transform="scale(0.26458333)">
        <path
          style="fill:#b6d9e7;stroke:none"
          d="m 2766.95,523.05 q -0.15,-8.45 -6.2,-14.45 -6.2,-6.2 -15,-6.2 -8.8,0 -15,6.2 -6.05,6 -6.2,14.45 V 639 q 0.15,8.45 6.2,14.5 4.4,4.4 10.05,5.7 v 45 q 0,2.05 1.5,3.6 1.5,1.5 3.6,1.5 2.1,0 3.6,-1.5 1.5,-1.55 1.5,-3.6 v -45.1 q 5.45,-1.35 9.75,-5.6 6.05,-6.05 6.2,-14.5 z"
          id="path2390"
          inkscape:connector-curvature="0"/>
      </g>
    </g>
    <g
      id="g1022"
      transform="matrix(0.26458333,0,0,0.26458333,-141.12875,222.44537)">
      <g
        id="use1020"
        transform="scale(0.26458333)">
        <path
          style="fill:#b6d9e7;stroke:none"
          d="m 2144.25,575.4 q -3.75,3.75 -3.85,9 v 72.2 q 0.1,5.25 3.85,9 2.75,2.75 6.25,3.55 v 28.05 q 0,1.25 0.95,2.25 0.95,0.9 2.25,0.9 1.3,0 2.25,-0.9 0.9,-1 0.9,-2.25 v -28.1 q 3.4,-0.85 6.1,-3.5 3.75,-3.75 3.85,-9 v -72.2 q -0.1,-5.25 -3.85,-9 -3.85,-3.85 -9.35,-3.85 -5.5,0 -9.35,3.85 z"
          id="path2394"
          inkscape:connector-curvature="0"/>
      </g>
    </g>
    <g
      id="g1026"
      transform="matrix(0.26458333,0,0,0.26458333,-141.12875,222.44537)">
      <g
        id="use1024"
        transform="scale(0.26458333)">
        <path
          style="fill:#b6d9e7;stroke:none"
          d="m 2115.6,545.55 q -5.5,0 -9.35,3.85 -3.75,3.75 -3.85,9 v 72.2 q 0.1,5.25 3.85,9 2.75,2.75 6.25,3.55 v 28.05 q 0,1.25 0.95,2.25 0.95,0.9 2.25,0.9 1.3,0 2.25,-0.9 0.9,-1 0.9,-2.25 v -28.1 q 3.4,-0.85 6.1,-3.5 3.75,-3.75 3.85,-9 v -72.2 q -0.1,-5.25 -3.85,-9 -3.85,-3.85 -9.35,-3.85 z"
          id="path2406"
          inkscape:connector-curvature="0"/>
      </g>
    </g>
    <g
      id="g1106"
      transform="matrix(0.26458333,0,0,0.26458333,-141.12875,222.44537)">
      <g
        id="use1104"
        transform="scale(0.26458333)">
        <path
          style="fill:#b6d9e7;stroke:none"
          d="m 2528.45,666.4 -9.65,13.6 -13.85,-4.9 6.15,15.9 -8.85,2.4 10.55,6.95 h 19.1 l 7.25,-15.3 -8.8,-1.75 z"
          id="path2398"
          inkscape:connector-curvature="0"/>
      </g>
    </g>
    <g
      id="g1110"
      transform="matrix(0.26458333,0,0,0.26458333,-141.12875,222.44537)">
      <g
        id="use1108"
        transform="scale(0.26458333)">
        <path
          style="fill:#b6d9e7;stroke:none"
          d="m 2086.3,672.35 7.25,-15.3 -8.8,-1.75 -1.9,-16.9 -9.65,13.6 -13.85,-4.9 6.15,15.9 -8.85,2.4 10.55,6.95 z"
          id="path2402"
          inkscape:connector-curvature="0"/>
      </g>
    </g>
  </g>
</svg>
