<?xml version="1.0" encoding="UTF-8" standalone="no"?>
<!-- Created with Inkscape (http://www.inkscape.org/) -->

<svg
  xmlns:cc="http://creativecommons.org/ns#"
  xmlns:dc="http://purl.org/dc/elements/1.1/"
  xmlns:inkscape="http://www.inkscape.org/namespaces/inkscape"
  xmlns:rdf="http://www.w3.org/1999/02/22-rdf-syntax-ns#"
  xmlns:sodipodi="http://sodipodi.sourceforge.net/DTD/sodipodi-0.dtd"
  height="16.933001pc"
  id="svg2294"
  version="1.1"
  viewBox="0 0 71.683035 71.683038"
  width="16.933001pc"
  xmlns="http://www.w3.org/2000/svg"
  inkscape:version="0.92.4 (5da689c313, 2019-01-14)"
  sodipodi:docname="background4_dark.svg">
  <title
    id="title2410">background4_dark
  </title>
  <defs
    id="defs2288">
    <filter
      style="color-interpolation-filters:sRGB;"
      id="filter4208"
      inkscape:label="Fade to Black or White">
      <feColorMatrix
        id="feColorMatrix4206"
        values="0.6 0 0 0 0 0 0.6 0 0 0 0 0 0.6 0 0 0 0 0 1 0"/>
    </filter>
    <filter
      style="color-interpolation-filters:sRGB;"
      id="filter4212"
      inkscape:label="Fade to Black or White">
      <feColorMatrix
        id="feColorMatrix4210"
        values="0.6 0 0 0 0 0 0.6 0 0 0 0 0 0.6 0 0 0 0 0 1 0"/>
    </filter>
    <filter
      style="color-interpolation-filters:sRGB;"
      id="filter4216"
      inkscape:label="Fade to Black or White">
      <feColorMatrix
        id="feColorMatrix4214"
        values="0.6 0 0 0 0 0 0.6 0 0 0 0 0 0.6 0 0 0 0 0 1 0"/>
    </filter>
  </defs>
  <sodipodi:namedview
    bordercolor="#666666"
    borderopacity="1.0"
    id="base"
    pagecolor="#ffffff"
    showgrid="false"
    units="pc"
    inkscape:current-layer="layer1"
    inkscape:cx="153.12484"
    inkscape:cy="144.00371"
    inkscape:document-units="pc"
    inkscape:pageopacity="0.0"
    inkscape:pageshadow="2"
    inkscape:window-height="1057"
    inkscape:window-maximized="1"
    inkscape:window-width="1920"
    inkscape:window-x="-8"
    inkscape:window-y="-8"
    inkscape:zoom="1.979899"/>
  <metadata
    id="metadata2291">
    <rdf:RDF>
      <cc:Work
        rdf:about="">
        <dc:format>image/svg+xml</dc:format>
        <dc:type
          rdf:resource="http://purl.org/dc/dcmitype/StillImage"/>
        <dc:title>background4_dark</dc:title>
      </cc:Work>
    </rdf:RDF>
  </metadata>
  <g
    id="layer1"
    transform="translate(0,-225.31696)"
    inkscape:groupmode="layer"
    inkscape:label="Layer 1">
    <g
      style="filter:url(#filter4216)"
      id="g934"
      transform="matrix(0.26458334,0,0,0.26458334,7.8404865,162.83026)">
      <g
        id="use932"
        transform="matrix(0.26458334,0,0,0.26458334,0,225.31696)">
        <path
          style="fill:#d5edf7;stroke:none"
          d="M 912,1065 V 41 H -112 v 1024 z"
          id="path2539"
          inkscape:connector-curvature="0"/>
      </g>
    </g>
    <g
      style="filter:url(#filter4212)"
      id="g938"
      transform="matrix(0.26458334,0,0,0.26458334,7.8404865,162.83026)">
      <g
        id="use936"
        transform="matrix(0.26458334,0,0,0.26458334,0,225.31696)">
        <path
          style="fill:#e6f4fa;stroke:none"
          d="m 830.85,533.55 q -8.2,2.8 -14.85,9.5 -9.3,9.25 -11.15,21.65 -10.65,1.3 -20.15,5.1 -2.35,-6.15 -7.7,-11.05 -9.5,-8.9 -23.1,-8.9 -13.55,0 -23.15,8.9 -1.4,1.35 -2.65,2.8 -23.75,-20.7 -56.8,-20.7 -6.7,0 -13.05,0.9 -0.5,-0.5 -1,-0.95 -9.5,-8.95 -23.1,-8.95 -7.7,0 -14.2,3 h -0.05 q 0,-0.25 0.05,-0.5 0.1,-1.05 0.1,-2.05 0,-0.45 0,-0.75 0,-0.5 0,-1.05 -0.4,-11.95 -9.6,-20.5 -9.55,-8.9 -23.1,-8.9 -3,0 -5.7,0.45 -2.25,-7.1 -8.3,-12.7 -9.55,-8.9 -23.1,-8.9 -13.55,0 -23.1,8.9 -6.55,6.1 -8.65,13.95 -21.2,4.05 -37.85,18.1 -8.5,-6.2 -19.85,-6.2 -13.55,0 -23.15,8.9 -6.95,6.5 -8.85,15.05 -8.45,-1.65 -17.6,-1.65 -2.9,0 -5.8,0.2 -2.1,-7.7 -8.55,-13.75 -9.5,-8.9 -23.1,-8.9 -13.55,0 -23.15,8.9 -0.35,0.4 -0.6,0.7 -5.3,-8.3 -13.1,-15.6 -24.45,-22.75 -59,-22.8 -2.35,-5.35 -7.05,-9.7 -9.55,-8.9 -23.15,-8.9 -4.6,0 -8.6,1 -0.9,-11 -9.55,-19 -9.55,-8.9 -23.1,-8.9 -9.7,0 -17.2,4.5 -16.7,-7.7 -36.8,-7.7 -34.7,0 -59.15,22.8 -11.35,10.55 -17.4,23.1 -3.4,-0.65 -7.15,-0.65 -13.45,0 -23.1,8.85 -9,8.4 -9.45,20.25 -0.05,0.6 -0.05,1.3 0,1.3 0.1,2.6 0.45,5.4 2.8,10.2 -1.65,3.45 -2.4,7.3 -12.55,5.55 -23.2,15.5 -4.5,4.2 -8.2,8.8 -7.65,-4.55 -17.4,-4.55 -13.55,0 -23.05,8.9 -7.15,6.6 -8.95,15.25 -0.8,0 -1.6,0 -19.5,0 -35.75,7.3 -6.9,-3.45 -15.2,-3.45 -8.45,0 -15.3,3.5 V 835.9 H 912 V 587.3 q -0.4,-15.75 -11.6,-26.95 -10,-10 -23.5,-11.4 -2.15,-3.1 -4.95,-5.9 -11.65,-11.65 -28,-11.65 -7,0 -13.1,2.15 z"
          id="path2543"
          inkscape:connector-curvature="0"/>
      </g>
    </g>
    <g
      style="filter:url(#filter4208)"
      id="g1118"
      transform="matrix(0.26458334,0,0,0.26458334,7.8404865,162.83026)">
      <g
        id="use1116"
        transform="matrix(0.26458334,0,0,0.26458334,0,225.31696)">
        <path
          style="fill:#b6d9e7;stroke:none"
          d="m 774.45,632 6.1,0.3 -17,-47.2 -21.5,45.6 6.85,0.3 -18.1,35.7 6.05,1.2 -14.65,38.3 25.8,0.45 -1.5,8 q -11.75,-2.55 -23.6,-6.9 -57.1,-21.15 -115.4,-38.6 -59.85,-17.85 -121.25,-5.75 -10.25,2 -20.3,4.45 l -2.65,-21.3 46.25,-5.25 -21.65,-47.75 7.9,0.55 -23.15,-70.65 9.85,-0.85 -37.15,-72 -24.75,77.5 10.95,-0.95 -21.5,61 9.95,0.65 -15.45,64.45 41.4,-4.7 -1.45,24.95 q -38.85,11.2 -75.4,28.55 -23.7,11.2 -48.6,17.8 l -1.65,-13.2 28.65,-3.25 -13.4,-29.55 4.85,0.35 -14.3,-43.75 6.1,-0.5 -23,-44.6 -15.35,48 6.8,-0.6 -13.3,37.75 6.15,0.4 -9.55,39.9 25.6,-2.9 -0.85,15.1 q -28.1,5.95 -57.65,6.15 Q 186.65,729.7 127.75,708.3 77.8,690 26.1,677 l 0.95,-25.45 46.45,2.15 -13.7,-50.55 7.7,1.8 -11.55,-73.45 9.85,0.75 -25.2,-77.05 -36.8,72.55 10.95,0.85 -30.95,56.8 9.7,2.2 -25.55,61.15 41.65,2 L 4.9,672 q -58.8,-12.25 -116.85,3.7 V 1065 H 912 V 675.7 q -34.9,12.4 -68.55,27.8 -41.7,19.1 -84.7,13.3 l 0.05,-10 28.8,0.5 -9.45,-31.05 4.75,1 z"
          id="path2535"
          inkscape:connector-curvature="0"/>
      </g>
    </g>
  </g>
</svg>
