<?xml version="1.0" encoding="UTF-8" standalone="no"?>
<!-- Created with Inkscape (http://www.inkscape.org/) -->

<svg
  xmlns:cc="http://creativecommons.org/ns#"
  xmlns:dc="http://purl.org/dc/elements/1.1/"
  xmlns:inkscape="http://www.inkscape.org/namespaces/inkscape"
  xmlns:rdf="http://www.w3.org/1999/02/22-rdf-syntax-ns#"
  xmlns:sodipodi="http://sodipodi.sourceforge.net/DTD/sodipodi-0.dtd"
  height="16.933001pc"
  id="svg2294"
  version="1.1"
  viewBox="0 0 71.683035 71.683038"
  width="16.933001pc"
  xmlns="http://www.w3.org/2000/svg"
  inkscape:version="0.92.4 (5da689c313, 2019-01-14)"
  sodipodi:docname="background3_dark.svg">
  <title
    id="title2410">background3_dark
  </title>
  <defs
    id="defs2288">
    <filter
      style="color-interpolation-filters:sRGB;"
      id="filter4154"
      inkscape:label="Fade to Black or White">
      <feColorMatrix
        id="feColorMatrix4152"
        values="0.6 0 0 0 0 0 0.6 0 0 0 0 0 0.6 0 0 0 0 0 1 0"/>
    </filter>
    <filter
      style="color-interpolation-filters:sRGB;"
      id="filter4158"
      inkscape:label="Fade to Black or White">
      <feColorMatrix
        id="feColorMatrix4156"
        values="0.6 0 0 0 0 0 0.6 0 0 0 0 0 0.6 0 0 0 0 0 1 0"/>
    </filter>
    <filter
      style="color-interpolation-filters:sRGB;"
      id="filter4162"
      inkscape:label="Fade to Black or White">
      <feColorMatrix
        id="feColorMatrix4160"
        values="0.6 0 0 0 0 0 0.6 0 0 0 0 0 0.6 0 0 0 0 0 1 0"/>
    </filter>
    <filter
      style="color-interpolation-filters:sRGB;"
      id="filter4166"
      inkscape:label="Fade to Black or White">
      <feColorMatrix
        id="feColorMatrix4164"
        values="0.6 0 0 0 0 0 0.6 0 0 0 0 0 0.6 0 0 0 0 0 1 0"/>
    </filter>
    <filter
      style="color-interpolation-filters:sRGB;"
      id="filter4170"
      inkscape:label="Fade to Black or White">
      <feColorMatrix
        id="feColorMatrix4168"
        values="0.6 0 0 0 0 0 0.6 0 0 0 0 0 0.6 0 0 0 0 0 1 0"/>
    </filter>
    <filter
      style="color-interpolation-filters:sRGB;"
      id="filter4174"
      inkscape:label="Fade to Black or White">
      <feColorMatrix
        id="feColorMatrix4172"
        values="0.6 0 0 0 0 0 0.6 0 0 0 0 0 0.6 0 0 0 0 0 1 0"/>
    </filter>
  </defs>
  <sodipodi:namedview
    bordercolor="#666666"
    borderopacity="1.0"
    id="base"
    pagecolor="#ffffff"
    showgrid="false"
    units="pc"
    inkscape:current-layer="layer1"
    inkscape:cx="153.12484"
    inkscape:cy="144.00371"
    inkscape:document-units="pc"
    inkscape:pageopacity="0.0"
    inkscape:pageshadow="2"
    inkscape:window-height="1057"
    inkscape:window-maximized="1"
    inkscape:window-width="1920"
    inkscape:window-x="-8"
    inkscape:window-y="-8"
    inkscape:zoom="1.979899"/>
  <metadata
    id="metadata2291">
    <rdf:RDF>
      <cc:Work
        rdf:about="">
        <dc:format>image/svg+xml</dc:format>
        <dc:type
          rdf:resource="http://purl.org/dc/dcmitype/StillImage"/>
        <dc:title>background3_dark</dc:title>
      </cc:Work>
    </rdf:RDF>
  </metadata>
  <g
    id="layer1"
    transform="translate(0,-225.31696)"
    inkscape:groupmode="layer"
    inkscape:label="Layer 1">
    <g
      style="filter:url(#filter4174)"
      id="g942"
      transform="matrix(0.26458334,0,0,0.26458334,-66.644135,162.83026)">
      <g
        id="use940"
        transform="matrix(0.26458334,0,0,0.26458334,0,225.31696)">
        <path
          style="fill:#d5edf7;stroke:none"
          d="M 1976,1065 V 41 H 952 v 1024 z"
          id="path2495"
          inkscape:connector-curvature="0"/>
      </g>
    </g>
    <g
      style="filter:url(#filter4170)"
      id="g946"
      transform="matrix(0.26458334,0,0,0.26458334,-66.644135,162.83026)">
      <g
        id="use944"
        transform="matrix(0.26458334,0,0,0.26458334,0,225.31696)">
        <path
          style="fill:#e6f4fa;stroke:none"
          d="m 1976,467.3 q -0.4,-15.75 -11.6,-26.95 -10,-10 -23.5,-11.4 -2.15,-3.1 -4.95,-5.9 -11.65,-11.65 -28,-11.65 -7,0 -13.1,2.15 -8.2,2.8 -14.85,9.5 -9.3,9.25 -11.15,21.65 -10.65,1.3 -20.15,5.1 -2.35,-6.15 -7.7,-11.05 -9.5,-8.9 -23.1,-8.9 -13.55,0 -23.15,8.9 -1.4,1.35 -2.65,2.8 -23.75,-20.7 -56.8,-20.7 -6.7,0 -13.05,0.9 -0.5,-0.5 -1,-0.95 -9.5,-8.95 -23.1,-8.95 -7.7,0 -14.2,3 h -0.05 q 0,-0.25 0.05,-0.5 0.1,-1.05 0.1,-2.05 0,-0.45 0,-0.75 0,-0.5 0,-1.05 -0.4,-11.95 -9.6,-20.5 -9.55,-8.9 -23.1,-8.9 -3,0 -5.7,0.45 -2.25,-7.1 -8.3,-12.7 -9.55,-8.9 -23.1,-8.9 -13.55,0 -23.1,8.9 -6.55,6.1 -8.65,13.95 -21.2,4.05 -37.85,18.1 -8.5,-6.2 -19.85,-6.2 -13.55,0 -23.15,8.9 -6.95,6.5 -8.85,15.05 -8.45,-1.65 -17.6,-1.65 -2.9,0 -5.8,0.2 -2.1,-7.7 -8.55,-13.75 -9.5,-8.9 -23.1,-8.9 -13.55,0 -23.15,8.9 -0.35,0.4 -0.6,0.7 -5.3,-8.3 -13.1,-15.6 -24.45,-22.75 -59,-22.8 -2.35,-5.35 -7.05,-9.7 -9.55,-8.9 -23.15,-8.9 -4.6,0 -8.6,1 -0.9,-11 -9.55,-19 -9.55,-8.9 -23.1,-8.9 -9.7,0 -17.2,4.5 -16.7,-7.7 -36.8,-7.7 -34.7,0 -59.15,22.8 -11.35,10.55 -17.4,23.1 -3.4,-0.65 -7.15,-0.65 -13.45,0 -23.1,8.85 -9,8.4 -9.45,20.25 -0.05,0.6 -0.05,1.3 0,1.3 0.1,2.6 0.45,5.4 2.8,10.2 -1.65,3.45 -2.4,7.3 -12.55,5.55 -23.2,15.5 -4.5,4.2 -8.2,8.8 -7.65,-4.55 -17.4,-4.55 -13.55,0 -23.05,8.9 -7.15,6.6 -8.95,15.25 -0.8,0 -1.6,0 -19.5,0 -35.75,7.3 -6.9,-3.45 -15.2,-3.45 -8.45,0 -15.3,3.5 V 715.9 h 1024 z"
          id="path2487"
          inkscape:connector-curvature="0"/>
      </g>
    </g>
    <g
      style="filter:url(#filter4166)"
      id="g950"
      transform="matrix(0.26458334,0,0,0.26458334,-66.644135,162.83026)">
      <g
        id="use948"
        transform="matrix(0.26458334,0,0,0.26458334,0,225.31696)">
        <path
          style="fill:#d5edf7;stroke:none"
          d="M 1976,763 V 593.45 l -42.8,41.45 -144.6,-140.05 q -13.9,-11.6 -25.2,0 l -128.9,124.8 -44,-42.55 q -10.75,-9.15 -18.95,0 l -47.75,46.2 -66,-63.9 q -9.55,-8.5 -17.75,0 l -49.65,48.1 -130.2,-126.1 q -11.1,-11.05 -22.35,0 l -112.3,112.05 -50.3,-48.7 q -8.8,-8.85 -17.6,0 L 979.7,620.25 952,593.45 V 763 Z"
          id="path2491"
          inkscape:connector-curvature="0"/>
      </g>
    </g>
    <g
      style="filter:url(#filter4162)"
      id="g954"
      transform="matrix(0.26458334,0,0,0.26458334,-66.644135,162.83026)">
      <g
        id="use952"
        transform="matrix(0.26458334,0,0,0.26458334,0,225.31696)">
        <path
          style="fill:#b6d9e7;stroke:none"
          d="m 1433.1,702.05 q -56.45,26.65 -119.5,27.1 -62.95,0.55 -121.85,-20.85 -57.1,-20.9 -116.45,-34.9 -62.05,-14.5 -123.25,2.3 V 1065 H 1976 V 675.7 q -34.9,12.4 -68.55,27.8 -58.95,27 -120.55,4.25 -57.1,-21.15 -115.4,-38.6 -59.85,-17.85 -121.25,-5.75 -61.3,12.1 -117.15,38.65 z"
          id="path2483"
          inkscape:connector-curvature="0"/>
      </g>
    </g>
    <g
      style="filter:url(#filter4158)"
      id="g1098"
      transform="matrix(0.26458334,0,0,0.26458334,-66.644135,162.83026)">
      <g
        id="use1096"
        transform="matrix(0.26458334,0,0,0.26458334,0,225.31696)">
        <path
          style="fill:#b6d9e7;stroke:none"
          d="m 1490.95,736.3 -111,-165 -103.8,165 h 214.8 m -16.5,-30.95 h 134.2 l -69.35,-103.1 z"
          id="path2479"
          inkscape:connector-curvature="0"/>
      </g>
    </g>
    <g
      style="filter:url(#filter4154)"
      id="g1102"
      transform="matrix(0.26458334,0,0,0.26458334,-66.644135,162.83026)">
      <g
        id="use1100"
        transform="matrix(0.26458334,0,0,0.26458334,0,225.31696)">
        <path
          style="fill:#ffffff;fill-opacity:0.30196078;stroke:none"
          d="m 1431.6,261.05 q -17.8,0 -30.4,12.55 -12.5,12.6 -12.5,30.35 0,17.8 12.5,30.3 12.6,12.6 30.4,12.6 17.75,0 30.25,-12.6 12.65,-12.5 12.65,-30.3 0,-17.75 -12.65,-30.35 -12.5,-12.55 -30.25,-12.55 m 1,12.9 q 13.25,0 22.6,9.35 9.4,9.4 9.4,22.65 0,13.25 -9.4,22.6 -9.35,9.4 -22.6,9.4 -13.25,0 -22.65,-9.4 -9.35,-9.35 -9.35,-22.6 0,-13.25 9.35,-22.65 9.4,-9.35 22.65,-9.35 z"
          id="path2473"
          inkscape:connector-curvature="0"/>
        <path
          style="fill:#ffffff;stroke:none"
          d="m 1455.2,283.3 q -9.35,-9.35 -22.6,-9.35 -13.25,0 -22.65,9.35 -9.35,9.4 -9.35,22.65 0,13.25 9.35,22.6 9.4,9.4 22.65,9.4 13.25,0 22.6,-9.4 9.4,-9.35 9.4,-22.6 0,-13.25 -9.4,-22.65 z"
          id="path2475"
          inkscape:connector-curvature="0"/>
      </g>
    </g>
  </g>
</svg>
